<svg xmlns="http://www.w3.org/2000/svg" viewBox="0 0 512 512" id="brightness">
  <path fill="#231f20" d="M256 324.93a68.95 68.95 0 0 1-66.1-88.51 68.59 68.59 0 0 1 13.31-24.73 6 6 0 1 1 9.17 7.71 58.93 58.93 0 0 0-4.41 6 57.46 57.46 0 0 0-4 7.37 56.74 56.74 0 0 0-2.61 7 57.92 57.92 0 0 0-1.64 7.27 58.71 58.71 0 0 0-.69 8.91 56.89 56.89 0 1 0 38.72-54 6 6 0 1 1-3.75-11.27 68.93 68.93 0 1 1 22 134.25Z"></path>
  <path d="M256 193.07v125.86a62.93 62.93 0 0 0 0-125.86Z"></path>
  <path fill="#231f20" d="M256 172.84a6 6 0 0 1-6-6v-22.77a6 6 0 0 1 12 0v22.77a6 6 0 0 1-6 6zm0 201.08a6 6 0 0 1-6-6v-22.76a6 6 0 1 1 12 0v22.77a6 6 0 0 1-6 5.99zM367.93 262h-22.77a6 6 0 1 1 0-12h22.77a6 6 0 1 1 0 12zm-201.09 0h-22.77a6 6 0 1 1 0-12h22.77a6 6 0 1 1 0 12z"></path>
  <path d="m319.04 192.96 16.1-16.1"></path>
  <path fill="#231f20" d="M319 199a6 6 0 0 1-4.24-10.23l16.1-16.1a6 6 0 0 1 8.48 8.48l-16.1 16.1A6 6 0 0 1 319 199Z"></path>
  <path d="m176.86 335.14 16.1-16.1"></path>
  <path fill="#231f20" d="M176.86 341.14a6 6 0 0 1-4.24-10.24l16.1-16.1a6 6 0 1 1 8.48 8.48l-16.1 16.1a6 6 0 0 1-4.24 1.76Z"></path>
  <path d="m319.04 319.04 16.1 16.1"></path>
  <path fill="#231f20" d="M335.14 341.14a6 6 0 0 1-4.24-1.76l-16.1-16.1a6 6 0 1 1 8.48-8.48l16.1 16.1a6 6 0 0 1-4.24 10.24Z"></path>
  <path d="m176.86 176.86 16.1 16.1"></path>
  <path fill="#231f20" d="M193 199a6 6 0 0 1-4.24-1.75l-16.1-16.1a6 6 0 0 1 8.48-8.48l16.1 16.1A6 6 0 0 1 193 199Z"></path>
</svg>
