<?xml version="1.0" encoding="utf-8"?>
<!-- Generator: Adobe Illustrator 27.8.1, SVG Export Plug-In . SVG Version: 6.00 Build 0)  -->
<svg version="1.1" id="github" xmlns="http://www.w3.org/2000/svg" xmlns:xlink="http://www.w3.org/1999/xlink" x="0px" y="0px"
	 viewBox="0 0 28 27.3" style="enable-background:new 0 0 28 27.3;" xml:space="preserve">
<style type="text/css">
	.st0{fill:#FFFFFF;}
</style>
<circle class="st0" cx="14" cy="14" r="13.2"/>
<path d="M28,14c0-7.7-6.3-14-14-14S0,6.3,0,14c0,6.2,4.1,11.5,9.7,13.3c0.8-0.2,0.8-0.7,0.8-0.7s0-1.4,0-2.7
	c-0.8,0.2-1.9,0.2-2.3,0.2c-0.5,0-2-0.4-2.7-2.1s-1.9-1.9-1.9-2.2s0.3-0.4,0.3-0.4s0.2,0,0.9,0s1.5,1.3,2,2s1.8,0.9,2.4,0.9
	c0.3,0,0.9-0.2,1.3-0.3c0.2-1.1,0.8-1.9,0.8-1.9c-6.2-0.6-6.4-5.2-6.4-7s1.5-3.6,1.5-3.6s-0.7-2,0.2-3.7c1.9,0,3.9,1.5,3.9,1.5
	s1.8-0.6,3.5-0.6s3.5,0.6,3.5,0.6s1.9-1.5,3.9-1.5c0.9,1.7,0.2,3.7,0.2,3.7s1.5,1.8,1.5,3.6s-0.2,6.5-6.4,7c0,0,0.8,1.1,0.8,2.4
	s0,4.1,0,4.1s0,0.5,0.8,0.7C23.9,25.5,28,20.2,28,14z"/>
</svg>
